<svg width="24" height="24" viewBox="0 0 24 24" fill="none" xmlns="http://www.w3.org/2000/svg">
<path d="M21.9577 4.04521V20.9082C21.9577 21.488 21.488 21.9535 20.9125 21.9535H16.08V14.6158H18.5428L18.9109 11.7552H16.0757V9.92717C16.0757 9.09777 16.3042 8.53497 17.4933 8.53497H19.0082V5.97483C18.7459 5.94098 17.8488 5.86058 16.7993 5.86058C14.6158 5.86058 13.1178 7.19354 13.1178 9.64365V11.7552H10.6465V14.6158H13.1178V21.9577H4.04521C3.46971 21.9577 3 21.488 3 20.9125V4.04521C3 3.46971 3.46971 3 4.04521 3H20.9082C21.488 3 21.9577 3.46971 21.9577 4.04521Z" fill="white"/>
</svg>
