<svg width="24" height="24" viewBox="0 0 24 24" fill="none" xmlns="http://www.w3.org/2000/svg">
<path d="M12.4862 6.61988C9.79493 6.61988 7.62411 8.7907 7.62411 11.482C7.62411 14.1733 9.79493 16.3442 12.4862 16.3442C15.1776 16.3442 17.3484 14.1733 17.3484 11.482C17.3484 8.7907 15.1776 6.61988 12.4862 6.61988ZM12.4862 14.643C10.747 14.643 9.32522 13.2254 9.32522 11.482C9.32522 9.73859 10.7428 8.32099 12.4862 8.32099C14.2297 8.32099 15.6473 9.73859 15.6473 11.482C15.6473 13.2254 14.2254 14.643 12.4862 14.643ZM18.6813 6.42099C18.6813 7.0515 18.1736 7.55507 17.5473 7.55507C17.323 7.55507 17.1037 7.48855 16.9172 7.36394C16.7307 7.23933 16.5854 7.06221 16.4995 6.85498C16.4137 6.64776 16.3912 6.41973 16.435 6.19974C16.4787 5.97975 16.5868 5.77768 16.7454 5.61908C16.904 5.46047 17.106 5.35246 17.326 5.30871C17.546 5.26495 17.774 5.28741 17.9813 5.37324C18.1885 5.45908 18.3656 5.60443 18.4902 5.79093C18.6148 5.97743 18.6813 6.19669 18.6813 6.42099ZM21.9016 7.57199C21.8297 6.05284 21.4827 4.70718 20.3698 3.5985C19.2611 2.48981 17.9154 2.14282 16.3963 2.06665C14.8306 1.97778 10.1377 1.97778 8.57199 2.06665C7.05707 2.13859 5.71141 2.48558 4.5985 3.59426C3.48558 4.70295 3.14282 6.04861 3.06665 7.56776C2.97778 9.13346 2.97778 13.8263 3.06665 15.392C3.13859 16.9112 3.48558 18.2568 4.5985 19.3655C5.71141 20.4742 7.05284 20.8212 8.57199 20.8974C10.1377 20.9862 14.8306 20.9862 16.3963 20.8974C17.9154 20.8254 19.2611 20.4785 20.3698 19.3655C21.4785 18.2568 21.8254 16.9112 21.9016 15.392C21.9905 13.8263 21.9905 9.13769 21.9016 7.57199ZM19.8789 17.072C19.718 17.4799 19.4749 17.8505 19.1648 18.1606C18.8547 18.4707 18.4842 18.7137 18.0762 18.8747C16.8279 19.3698 13.8658 19.2555 12.4862 19.2555C11.1067 19.2555 8.14037 19.3655 6.89627 18.8747C6.48832 18.7137 6.11779 18.4707 5.80769 18.1606C5.49759 17.8505 5.25453 17.4799 5.0936 17.072C4.5985 15.8237 4.71275 12.8615 4.71275 11.482C4.71275 10.1025 4.60273 7.13614 5.0936 5.89204C5.25453 5.48408 5.49759 5.11356 5.80769 4.80346C6.11779 4.49336 6.48832 4.2503 6.89627 4.08937C8.1446 3.59426 11.1067 3.70852 12.4862 3.70852C13.8658 3.70852 16.8321 3.5985 18.0762 4.08937C18.4842 4.2503 18.8547 4.49336 19.1648 4.80346C19.4749 5.11356 19.718 5.48408 19.8789 5.89204C20.374 7.14037 20.2597 10.1025 20.2597 11.482C20.2597 12.8615 20.374 15.8279 19.8789 17.072Z" fill="white"/>
</svg>
