<svg width="24" height="24" viewBox="0 0 24 24" fill="none" xmlns="http://www.w3.org/2000/svg">
<path d="M19.0469 7.84602C19.0588 8.01449 19.0588 8.18371 19.0588 8.35219C19.0588 13.5 15.1408 19.4316 7.9798 19.4316C5.77365 19.4316 3.7241 18.7925 2 17.6837C2.31357 17.7197 2.6149 17.732 2.94035 17.732C4.76057 17.732 6.43643 17.1167 7.77459 16.068C6.96207 16.0531 6.17449 15.7848 5.52183 15.3006C4.86918 14.8164 4.38404 14.1404 4.13416 13.3671C4.37736 13.4055 4.62309 13.4256 4.8693 13.4273C5.21887 13.4273 5.56844 13.379 5.89389 13.2948C5.01223 13.1163 4.21952 12.6382 3.65041 11.9416C3.0813 11.2449 2.77088 10.3728 2.77187 9.47326V9.42502C3.31144 9.72614 3.91453 9.89551 4.53197 9.91932C3.99755 9.56388 3.55935 9.08178 3.25639 8.51595C2.95344 7.95013 2.79515 7.31815 2.79563 6.67633C2.79563 5.95307 2.98859 5.28992 3.32629 4.71139C4.30439 5.91521 5.52459 6.90003 6.90775 7.60197C8.29092 8.30391 9.80618 8.7073 11.3553 8.786C11.2952 8.49654 11.2588 8.19559 11.2588 7.89426C11.2588 5.74822 12.9948 4 15.153 4C16.2738 4 17.2868 4.47018 17.9982 5.2298C18.8703 5.06186 19.7066 4.74368 20.4697 4.28945C20.1793 5.18941 19.5705 5.95247 18.7575 6.43549C19.5412 6.35088 20.3009 6.13379 21 5.83246C20.4669 6.60873 19.8066 7.28947 19.0469 7.84602Z" fill="white"/>
</svg>
